<?xml version="1.0" encoding="utf-8"?>
<!-- Generator: Adobe Illustrator 27.0.1, SVG Export Plug-In . SVG Version: 6.00 Build 0)  -->
<svg version="1.1" id="Layer_1" xmlns="http://www.w3.org/2000/svg" xmlns:xlink="http://www.w3.org/1999/xlink" x="0px" y="0px"
	 viewBox="0 0 792 270.6" style="enable-background:new 0 0 792 270.6;" xml:space="preserve">
<g>
	<path d="M185.2,147.9c-10.1-0.3-29.9-0.5-59.4-0.5c-0.8,24.3,3.2,41.1,12.2,50.4c9.1,9.5,19.3,12.2,30.4,8.2
		c4.8-1.7,8.9-4.3,12.2-8c3.3-3.7,5.4-7.6,6.2-11.7c0.3-1.3,1.1-2.4,2.2-3.1c1.2-0.7,2.4-1,3.7-0.7c1.3,0.2,2.4,1,3.1,2.1
		c0.7,1.2,1,2.4,0.9,3.7c-1.3,6-4.3,11.4-8.9,16.3c-4.6,4.9-9.9,8.4-16.1,10.6c-6.2,2.7-13.1,3.2-20.7,1.5
		c-7.5-1.7-14.2-5.7-20.2-12c-11.5-12-16.5-32.2-15-60.6c0.8-13.8,4.7-25.6,11.5-35.3c6.8-9.7,14.9-15.4,24.2-17.1
		c10.1-1.7,18.8,1.8,26,10.5c7.3,8.8,11.6,22,13,39.7c0,0.7-0.2,1.4-0.5,2.2C189.7,146.8,188.1,148.1,185.2,147.9z M126.8,137.4
		c26.5,0,44.3,0.1,53.4,0.3c-1.5-13-4.9-22.7-10.2-29.2c-4.7-5.7-10.1-7.9-16.5-6.7c-5.8,1-11.3,4.7-16.5,11.1
		C131.9,119.2,128.5,127.4,126.8,137.4z"/>
	<path d="M222.2,97c-0.3,12.8-0.3,29.9,0.2,51.4c10.5-27.3,26-46.3,46.7-56.9c1.2-0.7,2.4-0.7,3.7-0.2c1.3,0.5,2.3,1.3,3,2.5
		c0.7,1.2,0.7,2.4,0.2,3.7c-0.5,1.3-1.3,2.3-2.5,3c-12.6,6.5-23.2,16.6-31.6,30.4c-8.4,13.8-14.1,28.9-17.1,45.2
		c-0.8,4-1.2,9.5-1.2,16.5c0,8.7-0.2,14.7-0.5,18.2c0,0.3,0,0.7-0.1,1c-0.1,0.3-0.2,0.6-0.4,0.7c-0.3,1-0.8,1.7-1.5,2.2
		c-1,0.7-2.1,1-3.2,1c-1.2,0-2.2-0.4-3-1.2c-0.7-0.5-1.2-1.1-1.5-1.7c-0.2-0.3-0.3-0.7-0.5-1.2c0-0.5-0.1-1.4-0.2-2.7
		c-0.2-2-0.2-4-0.2-6c-0.2-3.5-0.1-8.6,0.2-15.5c0.2-6.8,0.2-11.9,0.2-15.2c-0.8-39.6-1.1-64.8-0.7-75.6c0-1.3,0.5-2.5,1.5-3.4
		c1-0.9,2.2-1.4,3.6-1.4c1.4,0,2.6,0.5,3.5,1.5C221.7,94.2,222.2,95.5,222.2,97z"/>
	<path d="M299.8,57.8c1,1,1.5,2.2,1.5,3.5c0,1.3-0.5,2.5-1.5,3.5c-1,1-2.2,1.5-3.5,1.5c-1.3,0-2.5-0.5-3.5-1.5c-1-1-1.5-2.2-1.5-3.5
		c0-1.3,0.5-2.5,1.5-3.5s2.2-1.5,3.5-1.5C297.6,56.3,298.8,56.8,299.8,57.8z M301.3,96.5c0,8.5,0.1,20.6,0.4,36.2
		c0.3,15.6,0.4,29.8,0.4,42.6s-0.2,24.8-0.7,36.1c0,1.3-0.5,2.5-1.5,3.4c-1,0.9-2.2,1.4-3.6,1.4c-1.4,0-2.6-0.5-3.5-1.5
		c-0.9-1-1.4-2.2-1.4-3.7c0.5-11.1,0.7-23.1,0.7-35.8c0-12.7-0.1-26.9-0.4-42.4c-0.2-15.6-0.4-27.6-0.4-36.1c0-1.3,0.5-2.5,1.5-3.5
		c1-1,2.2-1.5,3.5-1.5c1.3,0,2.5,0.5,3.5,1.5C300.8,94,301.3,95.2,301.3,96.5z"/>
	<path d="M329,127.7V212c0,1.3-0.5,2.5-1.5,3.5c-1,1-2.2,1.5-3.5,1.5c-1.3,0-2.5-0.5-3.5-1.5c-1-1-1.5-2.2-1.5-3.5V97
		c0-1.3,0.5-2.5,1.5-3.5c1-1,2.2-1.5,3.5-1.5c1.3,0,2.5,0.5,3.5,1.5c1,1,1.5,2.2,1.5,3.5v11.2c5.5-6.5,11.7-11.1,18.7-14
		c7-3,13.6-3.5,20-1.5c7,2.3,12.7,7.4,17.2,15.2c5.2,9.7,8.1,26.6,8.7,50.9c0.3,4.3,0.4,13.9,0.1,28.7c-0.3,14.8-0.4,22.7-0.4,23.7
		c0,1.3-0.5,2.5-1.5,3.5c-1,1-2.2,1.5-3.5,1.5c-1.3,0-2.5-0.5-3.5-1.5c-1-1-1.5-2.2-1.5-3.5c0-1,0.1-8.9,0.4-23.6
		c0.3-14.7,0.2-24.2-0.1-28.3c-0.7-22.8-3.2-38.3-7.7-46.4c-3-5.7-6.7-9.2-11.2-10.7c-4-1.2-8.4-0.7-13.2,1.2
		c-4.8,2-9.3,5.2-13.4,9.6c-4.1,4.4-7,9.1-8.9,14.1C329.1,127.4,329,127.5,329,127.7z"/>
	<path d="M478.2,46.6c0.7,21,1,50.5,1.1,88.7c0.1,38.2,0.2,63.6,0.4,76.2c0,1.3-0.5,2.5-1.4,3.5c-0.9,1-2.1,1.5-3.5,1.5
		c-1.4,0-2.6-0.5-3.6-1.4c-1-0.9-1.5-2.1-1.5-3.6c-0.2-12.5-0.3-37.8-0.4-76c-0.1-38.2-0.5-67.7-1.1-88.5c0-1.5,0.5-2.7,1.4-3.7
		c0.9-1,2.1-1.5,3.5-1.5c1.4,0,2.6,0.5,3.6,1.4C477.7,44.1,478.2,45.2,478.2,46.6z"/>
	<path d="M564.1,147.9c-10.1-0.3-29.9-0.5-59.4-0.5c-0.8,24.3,3.2,41.1,12.2,50.4c9.1,9.5,19.3,12.2,30.4,8.2
		c4.8-1.7,8.9-4.3,12.2-8c3.3-3.7,5.4-7.6,6.2-11.7c0.3-1.3,1.1-2.4,2.2-3.1c1.2-0.7,2.4-1,3.7-0.7c1.3,0.2,2.4,1,3.1,2.1
		c0.7,1.2,1,2.4,0.9,3.7c-1.3,6-4.3,11.4-8.9,16.3c-4.6,4.9-9.9,8.4-16.1,10.6c-6.2,2.7-13.1,3.2-20.7,1.5
		c-7.5-1.7-14.2-5.7-20.2-12c-11.5-12-16.5-32.2-15-60.6c0.8-13.8,4.7-25.6,11.5-35.3c6.8-9.7,14.9-15.4,24.2-17.1
		c10.1-1.7,18.8,1.8,26,10.5c7.3,8.8,11.6,22,13,39.7c0,0.7-0.2,1.4-0.5,2.2C568.6,146.8,566.9,148.1,564.1,147.9z M505.7,137.4
		c26.5,0,44.3,0.1,53.4,0.3c-1.5-13-4.9-22.7-10.2-29.2c-4.7-5.7-10.1-7.9-16.5-6.7c-5.8,1-11.3,4.7-16.5,11.1
		C510.7,119.2,507.3,127.4,505.7,137.4z"/>
	<path d="M657.9,147.9c-10.1-0.3-29.9-0.5-59.4-0.5c-0.8,24.3,3.2,41.1,12.2,50.4c9.1,9.5,19.3,12.2,30.4,8.2
		c4.8-1.7,8.9-4.3,12.2-8c3.3-3.7,5.4-7.6,6.2-11.7c0.3-1.3,1.1-2.4,2.2-3.1c1.2-0.7,2.4-1,3.7-0.7c1.3,0.2,2.4,1,3.1,2.1
		c0.7,1.2,1,2.4,0.9,3.7c-1.3,6-4.3,11.4-8.9,16.3c-4.6,4.9-9.9,8.4-16.1,10.6c-6.2,2.7-13.1,3.2-20.7,1.5
		c-7.5-1.7-14.2-5.7-20.2-12c-11.5-12-16.5-32.2-15-60.6c0.8-13.8,4.7-25.6,11.5-35.3c6.8-9.7,14.9-15.4,24.2-17.1
		c10.1-1.7,18.8,1.8,26,10.5c7.3,8.8,11.6,22,13,39.7c0,0.7-0.2,1.4-0.5,2.2C662.4,146.8,660.7,148.1,657.9,147.9z M599.5,137.4
		c26.5,0,44.3,0.1,53.4,0.3c-1.5-13-4.9-22.7-10.2-29.2c-4.7-5.7-10.1-7.9-16.5-6.7c-5.8,1-11.3,4.7-16.5,11.1
		C604.6,119.2,601.2,127.4,599.5,137.4z"/>
</g>
</svg>
