<?xml version="1.0" encoding="utf-8"?>
<!-- Generator: Adobe Illustrator 27.0.1, SVG Export Plug-In . SVG Version: 6.00 Build 0)  -->
<svg version="1.1" id="Layer_1" xmlns="http://www.w3.org/2000/svg" xmlns:xlink="http://www.w3.org/1999/xlink" x="0px" y="0px"
	 viewBox="0 0 918.5 222.2" style="enable-background:new 0 0 918.5 222.2;" xml:space="preserve">
<style type="text/css">
	.st0{fill:#F1F2F2;}
	.st1{display:none;}
</style>
<path class="st0" d="M88,49.7h98.8l1.9,37.6h-3.4c-5.3-12.8-10.9-21.6-16.7-26.3c-5.8-4.8-14.4-7.1-25.6-7.1h-6.6v58.7h6.5
	c6,0,11-2.2,15-6.7c4.1-4.5,6.9-10.5,8.5-18.1h2.9V144h-3.2c-2.3-9.5-5.4-16.3-9.2-20.3c-3.9-4.1-9.2-6.1-15.9-6.1h-4.6v61h7.2
	c11.7,0,21.6-3.5,29.7-10.5c8.2-7,13.8-15.9,16.8-26.8h3.8l-1.5,41.4H88v-4.2h11.2V53.9H88V49.7z"/>
<path class="st0" d="M262.9,97.6c-4.7,0-8.8,3-12.4,9.1c-3.5,6.1-5.3,13.3-5.3,21.7v50.9h13.5v3.4h-59.3v-3.4h10.5V95.7h-10.5v-3.4
	h45.8v18.2c1.6-6.5,4.8-11.4,9.5-14.9c4.7-3.5,10-5.2,16-5.2c6,0,10.8,1.7,14.5,5c3.7,3.4,5.6,8.1,5.6,14.2c0,6.1-1.4,10.9-4.2,14.2
	c-2.8,3.3-7.1,4.9-12.8,4.9c-5.8,0-10-1.9-12.7-5.7c-2.7-3.8-3.1-9.1-1-15.8h6.8C270,100.8,268.7,97.6,262.9,97.6z"/>
<path class="st0" d="M290.7,92.3h46.5v87h10.6v3.4h-56.4v-3.4h10.5V95.7h-11.2V92.3z M319.4,79.2c-6.7,0-11.5-1.7-14.3-5.1
	s-4.3-7.7-4.3-12.7c0-5.1,1.5-9.2,4.7-12.5c3.1-3.3,7.8-4.9,14.2-4.9c6.3,0,11.1,1.5,14.4,4.5c3.3,3,4.9,7.2,4.9,12.7
	c0,5.5-1.6,9.9-4.8,13.2C331.1,77.5,326.1,79.2,319.4,79.2z"/>
<path class="st0" d="M352.1,92.3h45.8v17.5c2-5.8,5.1-10.5,9.3-14.1c4.2-3.5,10.5-5.3,19-5.3c19.6,0,29.5,10.6,29.5,31.7v57.2h10.6
	v3.4h-53.8v-3.4h7.8v-61.8c0-7.6-0.5-12.5-1.5-14.7c-1-2.2-2.8-3.3-5.5-3.3c-4.1,0-7.6,2.7-10.7,8c-3.1,5.3-4.7,11.8-4.7,19.4v52.4
	h8.2v3.4h-54v-3.4h10.5V95.7h-10.5V92.3z"/>
<path class="st0" d="M502,49.7h68.4v4.2h-20.1v124.6h6.8c10.8,0,19.3-3.3,25.7-9.9c6.4-6.6,12.9-16.7,19.5-30.4h4l-3.6,44.5H502
	v-4.2h11.2V53.9H502V49.7z"/>
<path class="st0" d="M624.4,172c-8.2-8.4-12.3-20.1-12.3-35.2s4.6-26.5,13.8-34.5c9.2-8,20.9-12,35.1-12c28.8,0,42.6,14.4,41.4,43.3
	h-53.6v7.4c0,12.4,1.6,21.8,4.8,28.1c3.2,6.3,8.7,9.5,16.5,9.5c14.7,0,24.3-7.9,28.9-23.6l3.4,0.6c-2.4,9.1-6.7,16.2-13,21.3
	c-6.3,5.1-15.7,7.6-28.2,7.6C644.8,184.6,632.6,180.4,624.4,172z M649,129.9h19.6v-9.3c0-10.3-0.6-17.3-1.8-21
	c-1.2-3.7-3.6-5.6-7.2-5.6s-6.3,2-8,6c-1.7,4-2.6,10.9-2.6,20.6V129.9z"/>
<path class="st0" d="M722.4,172c-8.2-8.4-12.3-20.1-12.3-35.2s4.6-26.5,13.8-34.5c9.2-8,20.9-12,35.1-12c28.8,0,42.6,14.4,41.4,43.3
	h-53.6v7.4c0,12.4,1.6,21.8,4.8,28.1c3.2,6.3,8.7,9.5,16.5,9.5c14.7,0,24.3-7.9,28.9-23.6l3.4,0.6c-2.4,9.1-6.7,16.2-13,21.3
	c-6.3,5.1-15.7,7.6-28.2,7.6C742.8,184.6,730.6,180.4,722.4,172z M747,129.9h19.6v-9.3c0-10.3-0.6-17.3-1.8-21
	c-1.2-3.7-3.6-5.6-7.2-5.6s-6.3,2-8,6c-1.7,4-2.6,10.9-2.6,20.6V129.9z"/>
<path class="st1" d="M90.2-35h112.2l2.2,42.7h-3.9c-6-14.5-12.4-24.5-19-29.9c-6.6-5.4-16.3-8.1-29.1-8.1H145v66.7h7.3
	c6.8,0,12.4-2.6,17.1-7.7c4.6-5.1,7.8-12,9.7-20.6h3.2v63.9h-3.7c-2.6-10.8-6.1-18.5-10.5-23.1c-4.4-4.6-10.4-6.9-18-6.9H145v69.3
	h8.2c13.2,0,24.5-4,33.8-11.9c9.3-7.9,15.6-18.1,19.1-30.4h4.3l-1.7,47.1H90.2v-4.7h12.7V-30.2H90.2V-35z"/>
<path class="st1" d="M294.6,19.4c-5.3,0-10,3.5-14,10.4c-4,6.9-6,15.1-6,24.6v57.8h15.3v3.9h-67.3v-3.9h11.9v-95h-11.9v-3.9h52v20.7
	c1.9-7.3,5.5-13,10.8-16.9c5.3-4,11.4-5.9,18.1-5.9c6.8,0,12.3,1.9,16.5,5.7c4.2,3.8,6.4,9.2,6.4,16.2c0,7-1.6,12.3-4.7,16.1
	c-3.2,3.7-8,5.6-14.6,5.6c-6.5,0-11.4-2.2-14.5-6.5c-3.1-4.3-3.5-10.3-1.2-17.9h7.8C302.7,23.1,301.2,19.4,294.6,19.4z"/>
<path class="st1" d="M328.4,13.4h52.9v98.9h12.1v3.9h-64.1v-3.9h11.9v-95h-12.7V13.4z M361-1.5c-7.6,0-13.1-1.9-16.3-5.8
	c-3.2-3.9-4.9-8.7-4.9-14.5c0-5.8,1.8-10.5,5.3-14.2c3.5-3.7,8.9-5.6,16.1-5.6c7.2,0,12.7,1.7,16.4,5.1c3.7,3.4,5.6,8.2,5.6,14.5
	c0,6.3-1.8,11.3-5.4,15C374.3-3.4,368.7-1.5,361-1.5z"/>
<path class="st1" d="M398.2,13.4h52v19.9c2.3-6.6,5.8-11.9,10.6-16c4.7-4,11.9-6,21.6-6c22.3,0,33.5,12,33.5,36v65h12.1v3.9h-61.1
	v-3.9h8.9V42.1c0-8.6-0.6-14.2-1.7-16.7c-1.2-2.5-3.2-3.8-6.3-3.8c-4.6,0-8.7,3-12.2,9.1c-3.5,6-5.3,13.4-5.3,22v59.6h9.3v3.9h-61.3
	v-3.9H410v-95h-11.9V13.4z"/>
<path class="st1" d="M131.1,111.2h77.7v4.7h-22.9v141.6h7.8c12.2,0,22-3.7,29.2-11.2c7.3-7.5,14.6-19,22.1-34.5h4.5l-4.1,50.5H131.1
	v-4.7h12.7V115.9h-12.7V111.2z"/>
<path class="st1" d="M272.1,250.3c-9.3-9.6-13.9-22.9-13.9-39.9c0-17.1,5.2-30.1,15.6-39.2c10.4-9.1,23.7-13.6,39.8-13.6
	c32.7,0,48.4,16.4,47.1,49.2h-60.9v8.4c0,14.1,1.8,24.8,5.4,31.9c3.6,7.2,9.9,10.8,18.8,10.8c16.7,0,27.6-8.9,32.8-26.8l3.9,0.6
	c-2.7,10.4-7.7,18.4-14.8,24.2c-7.1,5.8-17.8,8.6-32.1,8.6C295.3,264.7,281.3,259.9,272.1,250.3z M300,202.5h22.2v-10.6
	c0-11.7-0.7-19.6-2-23.9c-1.4-4.2-4.1-6.4-8.2-6.4c-4.1,0-7.1,2.3-9.1,6.8c-1.9,4.5-2.9,12.3-2.9,23.4V202.5z"/>
<path class="st1" d="M383.4,250.3c-9.3-9.6-13.9-22.9-13.9-39.9c0-17.1,5.2-30.1,15.6-39.2c10.4-9.1,23.7-13.6,39.8-13.6
	c32.7,0,48.4,16.4,47.1,49.2h-60.9v8.4c0,14.1,1.8,24.8,5.4,31.9c3.6,7.2,9.9,10.8,18.8,10.8c16.7,0,27.6-8.9,32.8-26.8l3.9,0.6
	c-2.7,10.4-7.7,18.4-14.8,24.2c-7.1,5.8-17.8,8.6-32.1,8.6C406.6,264.7,392.7,259.9,383.4,250.3z M411.4,202.5h22.2v-10.6
	c0-11.7-0.7-19.6-2-23.9c-1.4-4.2-4.1-6.4-8.2-6.4c-4.1,0-7.1,2.3-9.1,6.8c-1.9,4.5-2.9,12.3-2.9,23.4V202.5z"/>
</svg>
